<svg width="41" height="32" viewBox="0 0 41 32" fill="none" xmlns="http://www.w3.org/2000/svg">
<path d="M34.9091 0H5.81818C2.60364 0 0 2.60364 0 5.81818V26.1818C0 29.3964 2.60364 32 5.81818 32H34.9091C38.1236 32 40.7273 29.3964 40.7273 26.1818V5.81818C40.7273 2.60364 38.1236 0 34.9091 0ZM14.1236 20.7855C15.4909 22.1527 13.4109 24.1891 12.0727 22.8364L6.25455 17.0182C5.68727 16.4509 5.68727 15.5345 6.25455 14.9673L12.0727 9.14909C13.44 7.78182 15.4909 9.84727 14.1236 11.2L9.33818 15.9855L14.1236 20.7709V20.7855ZM23.2291 10.5309L20.32 22.1673C19.8545 24.0582 17.0327 23.3309 17.4982 21.4691L20.4073 9.83273C20.8727 7.97091 23.6945 8.66909 23.2291 10.5309ZM34.4873 17.0182L28.6691 22.8364C27.3018 24.2036 25.2509 22.1382 26.6182 20.7855L31.4036 16L26.6182 11.2145C25.2509 9.84727 27.3164 7.79636 28.6691 9.16364L34.4873 14.9818C35.0545 15.5491 35.0545 16.4655 34.4873 17.0327V17.0182Z" fill="white"/>
</svg>
