<svg width="8" height="32" viewBox="0 0 8 32" fill="none" xmlns="http://www.w3.org/2000/svg">
<path fill-rule="evenodd" clip-rule="evenodd" d="M3.9981 0C1.77758 0 0 1.90308 0 4.18171C0 6.45875 0.629822 10.2975 1.35023 14.2824C2.07067 18.2675 2.88875 22.3663 3.27911 24.9348C3.30538 25.1066 3.39233 25.2634 3.52421 25.3767C3.6561 25.49 3.8242 25.5522 3.99804 25.5522C4.17189 25.5522 4.33998 25.49 4.47187 25.3767C4.60376 25.2634 4.69071 25.1066 4.71697 24.9348C5.10927 22.366 5.92833 18.2672 6.64924 14.2821C7.37016 10.2976 8.00005 6.45875 8.00005 4.18171C8.00005 1.90308 6.22149 0 3.9981 0Z" fill="#FF0000"/>
<path fill-rule="evenodd" clip-rule="evenodd" d="M3.99837 27.6364C2.80317 27.6364 1.81836 28.6223 1.81836 29.82C1.81836 31.0159 2.80317 32 3.99837 32C5.19543 32 6.18202 31.0159 6.18202 29.82C6.18202 28.6223 5.19543 27.6364 3.99837 27.6364Z" fill="#FF0000"/>
</svg>
