<svg width="28" height="28" viewBox="0 0 28 28" fill="none" xmlns="http://www.w3.org/2000/svg">
<path d="M27.9967 27.4963V18.9103C27.9967 18.7776 27.9439 18.6503 27.8501 18.5565C27.7563 18.4626 27.629 18.4099 27.4963 18.4099C27.4306 18.4112 27.3658 18.4255 27.3056 18.4518C27.2454 18.4782 27.1909 18.5161 27.1454 18.5635C27.0999 18.6109 27.0641 18.6668 27.0402 18.728C27.0163 18.7892 27.0046 18.8546 27.006 18.9203V26.2854L16.8689 16.1583C16.7747 16.0641 16.6469 16.0112 16.5136 16.0112C16.3804 16.0112 16.2526 16.0641 16.1584 16.1583C16.0642 16.2526 16.0112 16.3804 16.0112 16.5136C16.0112 16.6468 16.0642 16.7746 16.1584 16.8688L26.2855 26.9859H18.9203C18.7876 26.9859 18.6603 27.0386 18.5665 27.1325C18.4727 27.2263 18.42 27.3536 18.42 27.4863C18.42 27.619 18.4727 27.7462 18.5665 27.8401C18.6603 27.9339 18.7876 27.9866 18.9203 27.9866H27.5063C27.5689 28.0008 27.6339 28.0008 27.6964 27.9866C27.8169 27.9333 27.9133 27.8369 27.9666 27.7164C27.9957 27.6469 28.0061 27.571 27.9967 27.4963Z" fill="white"/>
<path d="M1.63176 1.01071H8.99691C9.12961 1.01071 9.25688 0.95799 9.35071 0.864157C9.44455 0.770323 9.49726 0.643057 9.49726 0.510356C9.49726 0.377655 9.44455 0.250392 9.35071 0.156558C9.25688 0.0627246 9.12961 0.0100059 8.99691 0.0100059L0.420919 5.70791e-07C0.363666 -9.73367e-05 0.307093 0.0124014 0.255211 0.0366129C0.20333 0.0608244 0.157411 0.096155 0.12071 0.140098C0.0700464 0.182379 0.0319684 0.237765 0.0106329 0.30021C-0.0035443 0.362794 -0.0035443 0.42776 0.0106329 0.490345V9.07634C0.0106329 9.20904 0.0633478 9.33631 0.157182 9.43014C0.251015 9.52398 0.378282 9.57669 0.510983 9.57669C0.576693 9.57539 0.641505 9.56116 0.701713 9.5348C0.761922 9.50845 0.816347 9.47049 0.861882 9.4231C0.907417 9.3757 0.943171 9.3198 0.967097 9.25859C0.991023 9.19737 1.00265 9.13205 1.00133 9.06634V1.70119L11.0483 11.8383C11.1438 11.9341 11.2734 11.988 11.4086 11.9884C11.474 11.988 11.5387 11.9745 11.5989 11.9487C11.659 11.923 11.7134 11.8854 11.7588 11.8383C11.8057 11.7918 11.843 11.7364 11.8684 11.6754C11.8938 11.6145 11.9068 11.5491 11.9068 11.483C11.9068 11.417 11.8938 11.3516 11.8684 11.2906C11.843 11.2296 11.8057 11.1743 11.7588 11.1278L1.63176 1.01071Z" fill="white"/>
</svg>
