<svg width="36" height="36" viewBox="0 0 36 36" fill="none" xmlns="http://www.w3.org/2000/svg">
<path d="M18.0325 0.134949C8.11105 0.134949 0.0657959 8.31588 0.0657959 18.4084C0.0657959 26.4822 5.2138 33.3319 12.3525 35.7482C13.2504 35.9174 13.5801 35.3518 13.5801 34.8692C13.5801 34.4334 13.5634 32.9939 13.5557 31.467C8.55733 32.5724 7.50262 29.3109 7.50262 29.3109C6.68533 27.1987 5.50775 26.6371 5.50775 26.6371C3.87763 25.5029 5.63062 25.5262 5.63062 25.5262C7.43479 25.6548 8.38477 27.4093 8.38477 27.4093C9.98722 30.203 12.5878 29.3953 13.6131 28.9284C13.7744 27.7477 14.24 26.9409 14.7538 26.4849C10.7632 26.0228 6.56811 24.4559 6.56811 17.4539C6.56811 15.4589 7.26996 13.8287 8.41928 12.549C8.23274 12.0885 7.61776 10.2302 8.59333 7.71309C8.59333 7.71309 10.1021 7.22196 13.5354 9.58621C14.9686 9.18133 16.5056 8.97828 18.0325 8.97132C19.5594 8.97828 21.0975 9.18133 22.5334 9.58621C25.9626 7.22196 27.4692 7.71309 27.4692 7.71309C28.4472 10.2302 27.8319 12.0885 27.6454 12.549C28.7974 13.8287 29.4945 15.4589 29.4945 17.4539C29.4945 24.4726 25.2914 26.018 21.2906 26.4704C21.9351 27.0374 22.5093 28.1495 22.5093 29.8544C22.5093 32.2991 22.4884 34.267 22.4884 34.8692C22.4884 35.3555 22.8118 35.9253 23.7226 35.7458C30.8574 33.3268 35.9989 26.4794 35.9989 18.4084C35.9989 8.31588 27.9548 0.134949 18.0325 0.134949Z" fill="white"/>
<path d="M6.8707 26.3717C6.83113 26.4628 6.6907 26.4897 6.56276 26.4274C6.43245 26.3678 6.35926 26.244 6.40151 26.1529C6.44019 26.0594 6.58091 26.0337 6.71093 26.0957C6.84154 26.1557 6.91592 26.2806 6.8707 26.3717Z" fill="white"/>
<path d="M7.59847 27.1972C7.51278 27.278 7.34528 27.2405 7.23163 27.1128C7.11411 26.9854 7.09209 26.815 7.17896 26.733C7.26733 26.6522 7.42977 26.6901 7.54759 26.8174C7.66511 26.9464 7.68802 27.1155 7.59847 27.1972Z" fill="white"/>
<path d="M8.30686 28.2497C8.19678 28.3274 8.01678 28.2545 7.90551 28.092C7.79543 27.9295 7.79543 27.7346 7.90789 27.6566C8.01946 27.5785 8.19678 27.6487 8.30954 27.81C8.41933 27.9749 8.41933 28.1701 8.30686 28.2497Z" fill="white"/>
<path d="M9.27732 29.2664C9.17884 29.3769 8.96909 29.3472 8.81557 29.1965C8.65848 29.0492 8.61474 28.8401 8.71352 28.7296C8.81319 28.6189 9.02413 28.65 9.17884 28.7995C9.33474 28.9466 9.38235 29.1572 9.27732 29.2664Z" fill="white"/>
<path d="M10.6162 29.8568C10.5727 30 10.3707 30.065 10.1672 30.0042C9.964 29.9416 9.83101 29.7739 9.87207 29.6293C9.91432 29.4852 10.1172 29.4174 10.3222 29.4825C10.5251 29.5448 10.6584 29.7113 10.6162 29.8568Z" fill="white"/>
<path d="M12.0865 29.9663C12.0916 30.117 11.919 30.242 11.7054 30.2444C11.4906 30.2496 11.3168 30.1276 11.3145 29.9794C11.3145 29.8272 11.4831 29.7034 11.698 29.6998C11.9116 29.6955 12.0865 29.8166 12.0865 29.9663Z" fill="white"/>
<path d="M13.4549 29.7294C13.4805 29.8765 13.332 30.0275 13.1199 30.0674C12.9113 30.1065 12.7182 30.0157 12.6917 29.8698C12.6658 29.7191 12.817 29.5681 13.0253 29.5291C13.2377 29.4916 13.4278 29.5799 13.4549 29.7294Z" fill="white"/>
</svg>
