<svg width="36" height="36" viewBox="0 0 36 36" fill="none" xmlns="http://www.w3.org/2000/svg">
<path fill-rule="evenodd" clip-rule="evenodd" d="M18 0C8.05887 0 0 8.05887 0 18C0 27.9411 8.05887 36 18 36C27.9411 36 36 27.9411 36 18C36 8.05887 27.9411 0 18 0ZM17.9729 19.5145L11.249 14.6336V24.9225H10.1257C9.49983 24.9225 9.00236 24.425 9.00236 23.7992V12.4215C9.00236 12.3738 9.00524 12.3292 9.01083 12.2874C9.03118 12.1089 9.09628 11.9341 9.21097 11.7796C9.58006 11.2821 10.3022 11.1698 10.8157 11.5389L17.989 16.7543L25.2104 11.4747C25.7078 11.1056 26.4139 11.2179 26.783 11.7314C26.9792 11.9959 27.0394 12.3192 26.9756 12.6196V23.8152C26.9756 24.425 26.4781 24.9225 25.8522 24.9225H24.7289V14.6091L17.9729 19.5145Z" fill="white"/>
</svg>
