<svg width="23" height="22" viewBox="0 0 23 22" fill="none" xmlns="http://www.w3.org/2000/svg">
<path d="M21 10.134C21.6667 10.5189 21.6667 11.4812 21 11.8661L7.5 19.6603C6.83333 20.0452 6 19.5641 6 18.7943V3.20583C6 2.43603 6.83333 1.95491 7.5 2.33981L21 10.134Z" fill="white"/>
<path d="M21.9822 19.9786C21.9822 19.4137 21.9822 18.846 21.9822 18.2811C21.9822 16.9216 21.9822 15.5647 21.9822 14.2052C21.9822 12.5618 21.9822 10.9157 21.9822 9.27234C21.9822 7.85061 21.9822 6.42888 21.9822 5.00715C21.9822 4.3152 22.0052 3.62326 21.9822 2.93131C21.9822 2.9205 21.9822 2.91239 21.9822 2.90158C21.9822 2.55291 21.3257 2.55291 21.3257 2.90158C21.3257 3.46649 21.3257 4.0341 21.3257 4.59901C21.3257 5.95857 21.3257 7.31543 21.3257 8.675C21.3257 10.3184 21.3257 11.9644 21.3257 13.6078C21.3257 15.0295 21.3257 16.4513 21.3257 17.873C21.3257 18.5649 21.3027 19.2569 21.3257 19.9488C21.3257 19.9596 21.3257 19.9678 21.3257 19.9786C21.3257 20.3272 21.9822 20.3272 21.9822 19.9786Z" fill="white"/>
</svg>
