<svg width="22" height="22" viewBox="0 0 22 22" fill="none" xmlns="http://www.w3.org/2000/svg">
<path d="M1.5 11.8661C0.833333 11.4812 0.833333 10.5189 1.5 10.134L15 2.33981C15.6667 1.95491 16.5 2.43603 16.5 3.20583V18.7943C16.5 19.5641 15.6667 20.0452 15 19.6603L1.5 11.8661Z" fill="white"/>
<path d="M0.517798 2.02155C0.517798 2.58646 0.517798 3.15408 0.517798 3.71898C0.517798 5.07855 0.517798 6.43541 0.517798 7.79497C0.517798 9.43834 0.517798 11.0844 0.517798 12.7278C0.517798 14.1495 0.517798 15.5712 0.517798 16.993C0.517798 17.6849 0.494821 18.3769 0.517798 19.0688C0.517798 19.0796 0.517798 19.0877 0.517798 19.0985C0.517798 19.4472 1.1743 19.4472 1.1743 19.0985C1.1743 18.5336 1.1743 17.966 1.1743 17.4011C1.1743 16.0415 1.1743 14.6847 1.1743 13.3251C1.1743 11.6818 1.1743 10.0357 1.1743 8.39231C1.1743 6.97058 1.1743 5.54885 1.1743 4.12712C1.1743 3.43518 1.19727 2.74323 1.1743 2.05129C1.1743 2.04048 1.1743 2.03237 1.1743 2.02155C1.1743 1.67288 0.517798 1.67288 0.517798 2.02155Z" fill="white"/>
</svg>
