<svg width="16" height="24" viewBox="0 0 16 24" fill="none" xmlns="http://www.w3.org/2000/svg">
<path d="M7.94435 22.4353C8.44052 22.4353 8.84914 22.7886 8.84914 23.2177C8.84914 23.6467 8.44052 24 7.94435 24C7.44817 24 7.03955 23.6467 7.03955 23.2177C7.06874 22.7886 7.44817 22.4353 7.94435 22.4353Z" fill="white"/>
<path d="M13.6067 2.04416C12.089 0.706625 10.0751 0 7.91522 0C5.78457 0 3.77068 0.731861 2.28214 2.04416C0.997917 3.15457 0.20987 4.56782 0.00556121 6.08202C-0.0528126 6.53628 0.355804 6.94006 0.881169 6.94006C1.31897 6.94006 1.6984 6.66246 1.75678 6.25868C2.13621 3.60883 4.76303 1.53943 7.94441 1.53943C11.3885 1.53943 14.1904 3.96215 14.1904 6.94006C14.1904 8.20189 13.6359 9.36278 12.6727 10.2461L9.11188 13.3249C7.79847 14.511 7.0688 16.0505 7.0688 17.7161V19.2555C7.0688 19.6845 7.47742 20.0379 7.97359 20.0379C8.46977 20.0379 8.87839 19.6845 8.87839 19.2555V17.7161C8.87839 16.4543 9.43294 15.2934 10.3961 14.4101L13.9569 11.3312C15.2703 10.1451 16 8.60568 16 6.94006C15.9708 5.07256 15.1244 3.33123 13.6067 2.04416Z" fill="white"/>
</svg>
