<svg width="24" height="24" viewBox="0 0 24 24" fill="none" xmlns="http://www.w3.org/2000/svg">
<g clip-path="url(#clip0_2019_202)">
<path d="M19.0847 9.54044C19.0847 4.26889 14.8101 0 9.54232 0C4.27265 0 0.00188472 4.27077 0 9.54044C0.00188472 14.812 4.27265 19.0809 9.54232 19.0809C11.9453 19.0809 14.1166 18.1611 15.7958 16.6948L23.0973 24L24 23.0973L16.6987 15.792C18.1668 14.1146 19.0847 11.9453 19.0847 9.54044ZM9.54232 17.8068C4.97942 17.7974 1.28726 14.1034 1.27784 9.54232C1.28726 4.97566 4.97755 1.28726 9.54232 1.27784C14.1089 1.28726 17.7993 4.97566 17.8068 9.54232C17.7993 14.1034 14.1089 17.7955 9.54232 17.8068Z" fill="white"/>
</g>
<defs>
<clipPath id="clip0_2019_202">
<rect width="24" height="24" fill="white"/>
</clipPath>
</defs>
</svg>
