<svg width="20" height="20" viewBox="0 0 20 20" fill="none" xmlns="http://www.w3.org/2000/svg">
<g clip-path="url(#clip0_15_27)">
<path d="M15.9039 7.95036C15.9039 3.55741 12.3417 0 7.95194 0C3.56055 0 0.0015706 3.55897 0 7.95036C0.0015706 12.3434 3.56055 15.9007 7.95194 15.9007C9.95446 15.9007 11.7638 15.1343 13.1632 13.9124L19.2477 20L20 19.2477L13.9155 13.16C15.139 11.7622 15.9039 9.95446 15.9039 7.95036ZM7.95194 14.839C4.14952 14.8312 1.07272 11.7528 1.06486 7.95194C1.07272 4.14638 4.14795 1.07272 7.95194 1.06486C11.7575 1.07272 14.8327 4.14638 14.839 7.95194C14.8327 11.7528 11.7575 14.8295 7.95194 14.839Z" fill="#A5A5A5"/>
</g>
<defs>
<clipPath id="clip0_15_27">
<rect width="20" height="20" fill="white"/>
</clipPath>
</defs>
</svg>
