<svg width="34" height="32" viewBox="0 0 34 32" fill="none" xmlns="http://www.w3.org/2000/svg">
<path d="M19.07 1.26455L22.5358 8.16581C22.7014 8.49564 22.9462 8.78095 23.2489 8.99715C23.5517 9.21335 23.9035 9.35395 24.2738 9.40685L32.0236 10.5135C32.4498 10.5744 32.8502 10.7512 33.1795 11.0241C33.5089 11.2969 33.7539 11.6549 33.887 12.0575C34.0201 12.46 34.036 12.8912 33.9327 13.3021C33.8295 13.7131 33.6113 14.0875 33.3029 14.3829L27.6951 19.7548C27.4271 20.0115 27.2267 20.3285 27.111 20.6783C26.9954 21.0281 26.968 21.4003 27.0313 21.7628L28.3551 29.348C28.4279 29.7652 28.3805 30.1941 28.2182 30.5862C28.0559 30.9783 27.7852 31.3179 27.4367 31.5667C27.0883 31.8156 26.6759 31.9636 26.2463 31.9941C25.8167 32.0246 25.387 31.9364 25.0057 31.7394L18.0742 28.1582C17.7429 27.9871 17.3743 27.8976 17 27.8976C16.6257 27.8976 16.2571 27.9871 15.9258 28.1582L8.99427 31.7394C8.61302 31.9364 8.1833 32.0246 7.75369 31.9941C7.32409 31.9636 6.91174 31.8155 6.56327 31.5667C6.21481 31.3179 5.94413 30.9783 5.78184 30.5862C5.61955 30.1941 5.57213 29.7652 5.64494 29.348L6.96874 21.7627C7.032 21.4002 7.00463 21.028 6.88898 20.6782C6.77333 20.3284 6.57287 20.0115 6.30487 19.7548L0.697108 14.3829C0.388668 14.0875 0.170499 13.7131 0.0672714 13.3021C-0.0359557 12.8912 -0.0201229 12.46 0.11298 12.0574C0.246083 11.6549 0.491146 11.2969 0.820456 11.0241C1.14977 10.7512 1.55019 10.5744 1.97644 10.5135L9.72616 9.40682C10.0965 9.35393 10.4483 9.21332 10.7511 8.99712C11.0538 8.78092 11.2986 8.49562 11.4642 8.16578L14.93 1.26455C15.1206 0.884972 15.4155 0.565375 15.7813 0.341904C16.1471 0.118432 16.5693 0 17 0C17.4307 0 17.8529 0.118432 18.2187 0.341904C18.5845 0.565375 18.8794 0.884972 19.07 1.26455Z" fill="#FAFF00"/>
</svg>
