<svg width="24" height="20" viewBox="0 0 24 20" fill="none" xmlns="http://www.w3.org/2000/svg">
<path d="M17.8065 7.5H19.3548C19.5871 7.5 19.7419 7.66667 19.7419 7.91667V12.0833C19.7419 12.3333 19.5871 12.5 19.3548 12.5H17.8065C17.5742 12.5 17.4194 12.3333 17.4194 12.0833V7.91667C17.4194 7.66667 17.5742 7.5 17.8065 7.5ZM10.8387 0.416667V4.58333C10.8387 4.83333 10.9935 5 11.2258 5H12.7742C13.0065 5 13.1613 4.83333 13.1613 4.58333V0.416667C13.1613 0.166667 13.0065 4.76837e-07 12.7742 4.76837e-07H11.2258C10.9935 4.76837e-07 10.8387 0.166667 10.8387 0.416667ZM4.25806 15.4167V19.5833C4.25806 19.8333 4.4129 20 4.64516 20H6.19355C6.42581 20 6.58064 19.8333 6.58064 19.5833V15.4167C6.58064 15.1667 6.42581 15 6.19355 15H4.64516C4.4129 15 4.25806 15.1667 4.25806 15.4167ZM0.774194 1.66667C0.348387 1.66667 0 2.04167 0 2.5C0 2.95833 0.348387 3.33333 0.774194 3.33333H9.67742V1.66667H0.774194ZM23.2258 3.33333C23.6516 3.33333 24 2.95833 24 2.5C24 2.04167 23.6516 1.66667 23.2258 1.66667H14.3226V3.33333H23.2258ZM0.774194 9.16667C0.348387 9.16667 0 9.54167 0 10C0 10.4583 0.348387 10.8333 0.774194 10.8333L16.2581 10.8333V9.16667L0.774194 9.16667ZM23.2258 10.8333C23.6516 10.8333 24 10.4583 24 10C24 9.54167 23.6516 9.16667 23.2258 9.16667H20.9032V10.8333H23.2258ZM23.2258 18.3333C23.6516 18.3333 24 17.9583 24 17.5C24 17.0417 23.6516 16.6667 23.2258 16.6667H7.74194V18.3333H23.2258ZM0.774194 16.6667C0.348387 16.6667 0 17.0417 0 17.5C0 17.9583 0.348387 18.3333 0.774194 18.3333H3.09677V16.6667H0.774194Z" fill="white"/>
</svg>
