<svg width="24" height="24" viewBox="0 0 24 24" fill="none" xmlns="http://www.w3.org/2000/svg">
<path d="M20.712 8.9568L20.304 7.968C21.7056 4.7376 21.612 4.644 21.3408 4.368L19.5552 2.5872L19.3776 2.4336H19.1688C19.0608 2.4336 18.732 2.4336 16.0152 3.6888L15.0168 3.276C13.7232 0 13.5912 0 13.2 0H10.6896C10.32 0 10.164 0 8.964 3.2808L7.9656 3.6936C6.1272 2.9016 5.0496 2.4936 4.7592 2.4936H4.5192L2.5992 4.4136C2.3088 4.6944 2.2056 4.7928 3.6864 7.9704L3.2784 8.9544C0 10.2744 0 10.4016 0 10.8V13.3176C0 13.7112 0 13.8528 3.2856 15.0528L3.6936 16.0368C2.292 19.2624 2.3856 19.3608 2.6568 19.6368L4.4424 21.4224L4.62 21.576H4.8264C4.9344 21.576 5.2584 21.576 7.9776 20.316L8.976 20.7288C10.272 24 10.404 24 10.7832 24H13.3152C13.6992 24 13.836 24 15.0408 20.7192L16.044 20.3064C17.8776 21.0984 18.9552 21.5064 19.2408 21.5064H19.4808L21.4176 19.5696C21.6936 19.284 21.7872 19.1856 20.316 16.02L20.7192 15.036C24 13.7352 24 13.5984 24 13.2144V10.692C24 10.2936 24 10.152 20.712 8.9568ZM12 16.2048C11.1699 16.2057 10.3581 15.9606 9.66738 15.5002C8.97662 15.0399 8.43785 14.385 8.1192 13.6185C7.80054 12.852 7.71631 12.0083 7.87715 11.1939C8.03799 10.3795 8.43668 9.63111 9.02282 9.0433C9.60895 8.45549 10.3562 8.05466 11.1701 7.89149C11.984 7.72833 12.828 7.81014 13.5955 8.12661C14.3629 8.44307 15.0192 8.97996 15.4815 9.66941C15.9439 10.3589 16.1914 11.1699 16.1928 12C16.1941 13.1135 15.7531 14.1819 14.9669 14.9704C14.1807 15.7589 13.1135 16.2029 12 16.2048Z" fill="white"/>
</svg>
