<svg width="37" height="37" viewBox="0 0 37 37" fill="none" xmlns="http://www.w3.org/2000/svg">
<path fill-rule="evenodd" clip-rule="evenodd" d="M24.4507 0.925018H13.3992C3.31307 0.925018 0.924927 3.31316 0.924927 13.3993V24.4508C0.924927 34.5369 3.31307 36.925 13.3992 36.925H24.4507C34.5368 36.925 36.9249 34.5369 36.9249 24.4508V13.3993C36.9249 3.31316 34.5368 0.925018 24.4507 0.925018ZM29.6081 12.3576C30.3957 12.3576 30.5735 12.7641 30.3957 13.323C30.1181 14.604 27.8133 18.0019 27.0995 19.0543C26.9638 19.2543 26.8856 19.3696 26.8897 19.3696C26.6102 19.8269 26.5086 20.0302 26.8897 20.5383C27.0274 20.7261 27.3196 21.0128 27.6534 21.3404C27.9968 21.6774 28.3843 22.0576 28.6935 22.4183C29.8113 23.6886 30.6751 24.7556 30.9038 25.4924C31.107 26.2292 30.7513 26.6103 29.9892 26.6103H27.3724C26.6789 26.6103 26.3214 26.212 25.5596 25.3633C25.233 24.9993 24.832 24.5526 24.2983 24.0189C22.7485 22.5199 22.0626 22.3167 21.6815 22.3167C21.148 22.3167 20.9955 22.4437 20.9955 23.2059V25.5686C20.9955 26.2038 20.7923 26.5849 19.1155 26.5849C16.3463 26.5849 13.2722 24.9081 11.1127 21.7832C7.86073 17.2101 6.97153 13.7549 6.97153 13.069C6.97153 12.6879 7.09856 12.3322 7.86073 12.3322H10.5029C11.1635 12.3322 11.4175 12.6117 11.6716 13.3484C12.9673 17.0831 15.1268 20.3604 16.016 20.3604C16.3463 20.3604 16.4987 20.208 16.4987 19.3696V15.5079C16.436 14.4103 16.0539 13.9321 15.7705 13.5774C15.5948 13.3575 15.4571 13.1851 15.4571 12.942C15.4571 12.6371 15.7111 12.3322 16.1176 12.3322H20.2333C20.7923 12.3322 20.9955 12.6371 20.9955 13.2976V18.5058C20.9955 19.0647 21.2242 19.268 21.402 19.268C21.7323 19.268 22.0118 19.0647 22.6215 18.455C24.5015 16.3463 25.848 13.0944 25.848 13.0944C26.0259 12.7133 26.3307 12.3576 26.9913 12.3576H29.6081Z" fill="white"/>
</svg>
