<svg width="26" height="22" viewBox="0 0 26 22" fill="none" xmlns="http://www.w3.org/2000/svg">
<path d="M15.0224 0.183097L7.24486 5.6749C6.91121 5.9106 6.50766 6.03775 6.0931 6.03775H1.94172C0.869241 6.03775 0 6.87076 0 7.89854V14.1012C0 15.1289 0.869241 15.9619 1.94172 15.9619H6.0931C6.50766 15.9619 6.91121 16.0891 7.24486 16.3248L11.1471 19.0803L13.027 20.408L15.0224 21.8169C15.6635 22.2697 16.5693 21.8309 16.5693 21.0679V0.932063C16.5693 0.169141 15.6635 -0.269694 15.0224 0.183097Z" fill="white"/>
<path d="M25.1334 6.64036C24.5311 5.2057 23.6434 3.9202 22.4949 2.81955L21.1218 4.13544C25.0544 7.90415 25.0269 14.063 21.0603 17.8646L22.4334 19.1805C23.5891 18.073 24.4858 16.7832 25.0984 15.3464C25.6903 13.9585 25.9936 12.4935 25.9997 10.9918C26.0062 9.48892 25.7146 8.0251 25.1334 6.64036Z" fill="white"/>
<path d="M19.5999 5.64139L18.2267 6.95727C20.5393 9.17347 20.5222 12.7961 18.1882 15.0328L19.5613 16.3487C21.0578 14.9146 21.8862 13.0123 21.8943 10.9911C21.9027 8.96723 21.0879 7.06737 19.5999 5.64139Z" fill="white"/>
</svg>
