<svg width="18" height="16" viewBox="0 0 18 16" fill="none" xmlns="http://www.w3.org/2000/svg">
<path d="M10.4002 0.133161L5.01569 4.1272C4.7847 4.29861 4.50532 4.39109 4.21831 4.39109H1.34427C0.601784 4.39109 0 4.99692 0 5.74439V10.2554C0 11.0029 0.601784 11.6087 1.34427 11.6087H4.21831C4.50532 11.6087 4.7847 11.7012 5.01569 11.8726L7.71722 13.8766L9.0187 14.8422L10.4002 15.8668C10.844 16.1961 11.4711 15.877 11.4711 15.3221V0.677864C11.4711 0.123012 10.844 -0.196141 10.4002 0.133161Z" fill="white"/>
<path d="M17.4001 4.82934C16.9832 3.78595 16.3686 2.85104 15.5735 2.05057L14.6229 3.00758C17.3455 5.74846 17.3264 10.2276 14.5803 12.9924L15.5309 13.9494C16.331 13.144 16.9518 12.2059 17.376 11.161C17.7857 10.1516 17.9957 9.08614 17.9999 7.99403C18.0044 6.90102 17.8025 5.83642 17.4001 4.82934Z" fill="white"/>
<path d="M13.5693 4.10281L12.6187 5.05982C14.2197 6.6716 14.2079 9.30625 12.592 10.9329L13.5427 11.8899C14.5786 10.847 15.1522 9.46346 15.1578 7.99355C15.1636 6.52161 14.5995 5.13989 13.5693 4.10281Z" fill="white"/>
<line x1="17.3293" y1="1.37629" x2="1.32925" y2="15.3763" stroke="#FF3D00"/>
</svg>
