<svg width="34" height="32" viewBox="0 0 34 32" fill="none" xmlns="http://www.w3.org/2000/svg">
<path d="M33.3836 24.9375L20.8199 2.3125C19.9979 0.875001 18.5889 0 17.0038 0C15.4186 0 14.0096 0.875001 13.1877 2.3125L0.623986 24.9375C-0.197939 26.375 -0.197939 28.1875 0.565277 29.625C1.3872 31.125 2.79622 32 4.38136 32H29.5675C31.1526 32 32.6203 31.125 33.3836 29.625C34.2055 28.1875 34.2055 26.375 33.3836 24.9375ZM18.765 25.25C18.765 26.3125 18.0018 27.125 17.0038 27.125C16.0057 27.125 15.2425 26.3125 15.2425 25.25V24.625C15.2425 23.5625 16.0057 22.75 17.0038 22.75C18.0018 22.75 18.765 23.5625 18.765 24.625V25.25ZM18.765 19.9375C18.765 21 18.0018 21.8125 17.0038 21.8125C16.0057 21.8125 15.2425 21 15.2425 19.9375V9.9375C15.2425 8.875 16.0057 8.0625 17.0038 8.0625C18.0018 8.0625 18.765 8.875 18.765 9.9375V19.9375Z" fill="#FFDC25"/>
</svg>
